<svg width="140" height="50" viewBox="0 0 140 50" fill="none" xmlns="http://www.w3.org/2000/svg">
              <circle cx="25" cy="25" r="24" fill="white" stroke="black" strokeWidth="2" />
              <path d="M9.28693 33H12.5085L14.9631 24.1534H15.142L17.5966 33H20.8097L24.517 19.9091H21.3636L19.0966 29.0625H18.9688L16.6165 19.9091H13.5057L11.1534 29.1136H11.0341L8.73295 19.9091H5.58807L9.28693 33ZM26.6712 33H29.7564V19.9091H26.6712V33ZM28.2223 18.0511C29.2024 18.0511 30.0036 17.3011 30.0036 16.3807C30.0036 15.4517 29.2024 14.7017 28.2223 14.7017C27.2337 14.7017 26.4325 15.4517 26.4325 16.3807C26.4325 17.3011 27.2337 18.0511 28.2223 18.0511ZM32.7585 33H43.5057V30.4432H36.858V30.3324L43.2841 22.0142V19.9091H32.9801V22.4659H39.5085V22.5767L32.7585 31.0398V33ZM62.7053 23.3693C62.2791 21.1534 60.5064 19.7386 57.4382 19.7386C54.2848 19.7386 52.1371 21.2898 52.1456 23.7102C52.1371 25.6193 53.3132 26.8807 55.8274 27.4006L58.0604 27.8693C59.2621 28.1335 59.8246 28.6193 59.8246 29.3608C59.8246 30.2557 58.853 30.929 57.3871 30.929C55.9723 30.929 55.0518 30.3153 54.7876 29.1392L51.7791 29.429C52.1626 31.8324 54.1825 33.2557 57.3956 33.2557C60.6683 33.2557 62.978 31.5597 62.9865 29.0795C62.978 27.2131 61.7763 26.071 59.3047 25.5341L57.0717 25.0568C55.7422 24.7585 55.2138 24.2983 55.2223 23.5398C55.2138 22.6534 56.1939 22.0398 57.4808 22.0398C58.9041 22.0398 59.6541 22.8153 59.8928 23.6761L62.7053 23.3693ZM73.8743 27.4943C73.8743 29.4886 72.451 30.4773 71.0874 30.4773C69.6044 30.4773 68.6158 29.429 68.6158 27.767V19.9091H65.5305V28.2443C65.5305 31.3892 67.3203 33.1705 69.8942 33.1705C71.8544 33.1705 73.2351 32.1392 73.8317 30.6733H73.968V33H76.9595V19.9091H73.8743V27.4943ZM83.2173 15.5455H80.1321V33H83.2173V15.5455ZM89.4751 15.5455H86.3899V33H89.4751V15.5455ZM92.6477 33H95.733V19.9091H92.6477V33ZM94.1989 18.0511C95.179 18.0511 95.9801 17.3011 95.9801 16.3807C95.9801 15.4517 95.179 14.7017 94.1989 14.7017C93.2102 14.7017 92.4091 15.4517 92.4091 16.3807C92.4091 17.3011 93.2102 18.0511 94.1989 18.0511ZM110.599 19.9091H107.317L104.3 29.6335H104.164L101.156 19.9091H97.8658L102.528 33H105.937L110.599 19.9091ZM116.126 33.2642C118.18 33.2642 119.407 32.3011 119.969 31.2017H120.072V33H123.038V24.2386C123.038 20.7784 120.217 19.7386 117.719 19.7386C114.967 19.7386 112.853 20.9659 112.171 23.3523L115.052 23.7614C115.359 22.8665 116.228 22.0994 117.737 22.0994C119.168 22.0994 119.952 22.8324 119.952 24.1193V24.1705C119.952 25.0568 119.023 25.0994 116.714 25.3466C114.174 25.6193 111.745 26.3778 111.745 29.3267C111.745 31.9006 113.629 33.2642 116.126 33.2642ZM116.927 30.9972C115.64 30.9972 114.719 30.4091 114.719 29.2756C114.719 28.0909 115.751 27.5966 117.131 27.4006C117.941 27.2898 119.56 27.0852 119.961 26.7614V28.304C119.961 29.7614 118.785 30.9972 116.927 30.9972ZM129.225 25.3295C129.225 23.4375 130.367 22.3466 131.995 22.3466C133.589 22.3466 134.543 23.3949 134.543 25.142V33H137.629V24.6648C137.637 21.5284 135.847 19.7386 133.146 19.7386C131.185 19.7386 129.839 20.6761 129.242 22.1335H129.089V19.9091H126.14V33H129.225V25.3295Z" fill="black" />
            </svg>